<?xml version="1.0" encoding="iso-8859-1"?>
<!-- Generator: Adobe Illustrator 19.0.0, SVG Export Plug-In . SVG Version: 6.00 Build 0)  -->
<svg xmlns="http://www.w3.org/2000/svg" xmlns:xlink="http://www.w3.org/1999/xlink" version="1.1" id="Layer_1" x="0px" y="0px" viewBox="0 0 511.999 511.999" style="enable-background:new 0 0 511.999 511.999;" xml:space="preserve" width="512px" height="512px">
<g>
	<g>
		<path d="M510.897,473.813l-64.961-105.841c-2.157-3.514-6.754-4.619-10.27-2.458c-3.515,2.157-4.615,6.755-2.458,10.269    l57.98,94.468h-85.009l-26.971-43.944l-76.085-123.965l15.03-6.842L334.942,316c1.418,1.731,3.539,2.736,5.777,2.736    s4.359-1.005,5.777-2.736l16.791-20.501l28.65,13.042l28.231,45.998c2.157,3.515,6.756,4.617,10.27,2.459    c3.515-2.158,4.615-6.756,2.458-10.27l-29.425-47.942l-56.128-91.449c-1.358-2.213-3.769-3.561-6.364-3.561    s-5.006,1.348-6.364,3.561l-44.902,73.16l-77.513-126.292v-44.087l87.869-33.512c2.894-1.103,4.806-3.879,4.806-6.978    c0-3.097-1.912-5.873-4.806-6.978l-92.676-35.345c-0.043-0.016-0.088-0.025-0.13-0.041c-0.199-0.072-0.401-0.134-0.606-0.19    c-0.08-0.021-0.158-0.043-0.238-0.061c-0.203-0.047-0.41-0.084-0.619-0.114c-0.075-0.011-0.148-0.026-0.223-0.034    c-0.268-0.03-0.54-0.049-0.814-0.05c-0.009,0-0.019-0.001-0.028-0.002h-0.001c-0.285,0-0.564,0.019-0.839,0.05    c-0.071,0.008-0.14,0.022-0.211,0.032c-0.211,0.03-0.419,0.066-0.624,0.113c-0.079,0.018-0.155,0.04-0.234,0.06    c-0.2,0.053-0.397,0.114-0.59,0.182c-0.074,0.026-0.146,0.052-0.218,0.08c-0.212,0.083-0.418,0.176-0.62,0.277    c-0.049,0.025-0.1,0.046-0.147,0.071c-0.25,0.132-0.493,0.278-0.726,0.437c-0.008,0.005-0.016,0.009-0.024,0.015    c-0.035,0.024-0.065,0.053-0.1,0.078c-0.184,0.131-0.361,0.27-0.533,0.417c-0.071,0.061-0.137,0.124-0.206,0.187    c-0.138,0.128-0.273,0.263-0.401,0.402c-0.063,0.068-0.125,0.133-0.185,0.203c-0.146,0.17-0.285,0.349-0.416,0.532    c-0.027,0.039-0.058,0.075-0.085,0.113c-0.159,0.232-0.304,0.473-0.436,0.722c-0.019,0.036-0.035,0.074-0.054,0.111    c-0.108,0.211-0.205,0.427-0.293,0.648c-0.027,0.068-0.051,0.136-0.076,0.206c-0.071,0.195-0.132,0.394-0.187,0.596    c-0.021,0.079-0.043,0.157-0.061,0.237c-0.048,0.203-0.085,0.41-0.115,0.619c-0.011,0.075-0.026,0.149-0.035,0.225    c-0.032,0.281-0.052,0.565-0.052,0.853v70.69v49.232L89.025,330.559c-2.157,3.515-1.057,8.113,2.458,10.271    c3.516,2.157,8.113,1.055,10.27-2.459l24.259-39.525l49.506-22.538l23.437,28.616c1.418,1.732,3.539,2.736,5.777,2.736    c2.238,0,4.359-1.005,5.777-2.736l23.437-28.615l49.505,22.537l2.52,4.106l0.001,0.001l49.412,80.507l53.269,86.791H20.812    l67.09-109.311c2.157-3.515,1.057-8.113-2.458-10.27c-3.516-2.157-8.114-1.055-10.27,2.459L1.103,473.813    c-1.414,2.304-1.473,5.193-0.152,7.552c1.32,2.36,3.813,3.821,6.517,3.821h394.531h102.533c2.703,0,5.196-1.462,6.517-3.821    C512.369,479.006,512.31,476.116,510.897,473.813z M340.979,225.516l36.98,60.253l-13.715-6.245    c-3.085-1.405-6.726-0.556-8.871,2.065l-14.654,17.893l-14.654-17.893c-1.454-1.775-3.592-2.736-5.78-2.736    c-1.042,0-2.096,0.218-3.092,0.671l-12.99,5.914L340.979,225.516z M212.201,45.122l64.252,24.504l-64.252,24.505V45.122z     M234.904,260.335c-3.084-1.405-6.726-0.556-8.871,2.065l-21.3,26.008l-21.3-26.008c-1.454-1.775-3.592-2.736-5.78-2.736    c-1.042,0-2.096,0.218-3.091,0.671l-34.57,15.738l64.742-105.485l64.741,105.485L234.904,260.335z" fill="#FA6B4E"/>
	</g>
</g>
<g>
</g>
<g>
</g>
<g>
</g>
<g>
</g>
<g>
</g>
<g>
</g>
<g>
</g>
<g>
</g>
<g>
</g>
<g>
</g>
<g>
</g>
<g>
</g>
<g>
</g>
<g>
</g>
<g>
</g>
</svg>
